<svg xmlns="http://www.w3.org/2000/svg" viewBox="0 0 400 400"><g id="camera"><g id="body"><path d="M274.91,150.89a13.9,13.9,0,0,1,13.88,13.89V234a13.89,13.89,0,0,1-13.88,13.88H134.67A13.89,13.89,0,0,1,120.79,234V164.78a13.9,13.9,0,0,1,13.88-13.89H274.91m0-10H134.67a23.89,23.89,0,0,0-23.88,23.89V234a23.88,23.88,0,0,0,23.88,23.88H274.91A23.88,23.88,0,0,0,298.79,234V164.78a23.89,23.89,0,0,0-23.88-23.89Z"/></g><g id="lens"><path d="M247.79,177.89a22,22,0,1,1-22,22,22,22,0,0,1,22-22m0-10a32,32,0,1,0,32,32,32,32,0,0,0-32-32Z"/></g><g id="flash"><polygon points="175.79 167.9 136.79 167.9 136.79 185.9 175.79 185.9 175.79 167.9 175.79 167.9"/></g><g id="button"><polygon points="169.79 133.9 143.79 133.9 143.79 148.9 169.79 148.9 169.79 133.9 169.79 133.9"/></g></g><g id="border"><g id="border-2" data-name="border"><path d="M327.3,20A52.76,52.76,0,0,1,380,72.7V327.3A52.76,52.76,0,0,1,327.3,380H72.7A52.76,52.76,0,0,1,20,327.3V72.7A52.76,52.76,0,0,1,72.7,20H327.3m0-20H72.7A72.7,72.7,0,0,0,0,72.7V327.3A72.7,72.7,0,0,0,72.7,400H327.3A72.7,72.7,0,0,0,400,327.3V72.7A72.7,72.7,0,0,0,327.3,0Z"/></g></g></svg>