<svg id="camera" xmlns="http://www.w3.org/2000/svg" viewBox="0 0 400 400"><defs>
  <style>
    #camera:hover{cursor:pointer;}
    #camera:hover .cls-2 {fill: red;}
    #lens{
    transform-origin: center;
    transition: all 1.5s ease;
    }
    #camera:hover #flash{
    fill: yellow;
    }

    #camera:hover #lens{
    transform: scale(1.1);

    }
    .cls-1{
    fill:#ccc;
    }
    .cls-2{
    fill:#fff;
    transition: all 1.5s ease;
    }
  </style>
  <script>
    let thecamera = document.querySelector("#camera")

    function LogMyId (){
    console.log(this.id);
    }

    thecamera.addEventListener("click", LogMyId)

  </script>
</defs>
<g id="border">
  <g id="border-2" data-name="border">
    <rect class="cls-1" x="10" y="10" width="380" height="380" rx="62.7"/>
    <path d="M327.3,20A52.76,52.76,0,0,1,380,72.7V327.3A52.76,52.76,0,0,1,327.3,380H72.7A52.76,52.76,0,0,1,20,327.3V72.7A52.76,52.76,0,0,1,72.7,20H327.3m0-20H72.7A72.7,72.7,0,0,0,0,72.7V327.3A72.7,72.7,0,0,0,72.7,400H327.3A72.7,72.7,0,0,0,400,327.3V72.7A72.7,72.7,0,0,0,327.3,0Z"/></g></g>
    <g id="camera"><g id="body">
      <rect class="cls-2" x="115.79" y="145.89" width="178" height="107" rx="18.88"/>
      <path d="M274.91,150.89a13.9,13.9,0,0,1,13.88,13.89V234a13.89,13.89,0,0,1-13.88,13.88H134.67A13.89,13.89,0,0,1,120.79,234V164.78a13.9,13.9,0,0,1,13.88-13.89H274.91m0-10H134.67a23.89,23.89,0,0,0-23.88,23.89V234a23.88,23.88,0,0,0,23.88,23.88H274.91A23.88,23.88,0,0,0,298.79,234V164.78a23.89,23.89,0,0,0-23.88-23.89Z"/></g>
      <g id="lens"><circle class="cls-1" cx="247.79" cy="199.89" r="27"/><path d="M247.79,177.89a22,22,0,1,1-22,22,22,22,0,0,1,22-22m0-10a32,32,0,1,0,32,32,32,32,0,0,0-32-32Z"/></g>
      <g id="flash"><rect class="cls-1" x="138.29" y="169.39" width="36" height="15"/><path d="M172.79,170.89v12h-33v-12h33m3-3h-39v18h39v-18Z"/></g>
      <g id="button"><polygon points="169.79 133.9 143.79 133.9 143.79 148.9 169.79 148.9 169.79 133.9 169.79 133.9"/></g></g></svg>
