<svg id="keyboard" xmlns="http://www.w3.org/2000/svg" viewBox="0 0 400 400">
  <defs>
    <style>
    #keyboard:hover {cursor:pointer;}
    #keyboard:hover #border
    {
    fill: red;
    transition: all 1.5s ease;
    }
    #keyboard:hover #body
    {
    fill: blue;
    transition: all 1.5s ease
    }

    #keyboard-2:hover {
    transform: zoom(40%);
      transform: translateY(-40px);
    }
    #keyboard:hover #row_1
    {
    fill: red;
    transition: all 1.5s ease
    }

    #keyboard:hover #row_2
    {
    fill: blue;
    transition: all 1.5s ease
    }
    #keyboard:hover #row_3
    {
    fill: red;
    transition: all 1.5s ease
    }

    #keyboard:hover #row_4
    {
    fill: blue;
    transition: all 1.5s ease
    }

    #keyboard:hover #row_5
    {
    fill: red;
    transition: all 1.5s ease
    }
    #keyboard:hover #row_6
    {
    fill: blue;
    transition: all 1.5s ease
    }

    .cls-1{
    fill:#ccc;
    transform-origin: center
    transition: all 2s ease;
    }
    .cls-2{
    fill:#fff;
    transform-origin: center
    transition: all 2s ease;
    }

  </style>
  <script>
    let thekeyboard = document.querySelector("#keyboard")

    function LogMyId (){
    console.log(this.id);
    }

    thekeyboard.addEventListener("click", LogMyId)

  </script>
</defs><g id="border"><g id="border-2" data-name="border"><rect class="cls-1" x="10" y="10" width="380" height="380" rx="62.7"/><path d="M327.3,20A52.76,52.76,0,0,1,380,72.7V327.3A52.76,52.76,0,0,1,327.3,380H72.7A52.76,52.76,0,0,1,20,327.3V72.7A52.76,52.76,0,0,1,72.7,20H327.3m0-20H72.7A72.7,72.7,0,0,0,0,72.7V327.3A72.7,72.7,0,0,0,72.7,400H327.3A72.7,72.7,0,0,0,400,327.3V72.7A72.7,72.7,0,0,0,327.3,0Z"/></g></g><g id="keyboard"><g id="keyboard-2" data-name="keyboard"><g id="body"><rect class="cls-2" x="78.29" y="156.39" width="235" height="100" rx="7.43"/><path d="M305.86,158.89a4.93,4.93,0,0,1,4.93,4.93V249a4.93,4.93,0,0,1-4.93,4.92H85.72A4.93,4.93,0,0,1,80.79,249V163.82a4.93,4.93,0,0,1,4.93-4.93H305.86m0-5H85.72a9.93,9.93,0,0,0-9.93,9.93V249a9.92,9.92,0,0,0,9.93,9.92H305.86a9.92,9.92,0,0,0,9.93-9.92V163.82a9.93,9.93,0,0,0-9.93-9.93Z"/></g><g id="row_1" data-name="row 1"><rect x="84.79" y="162.89" width="22" height="10" rx="1"/><path d="M105.79,163.89h0v8h-20v-8h20m0-2h-20a2,2,0,0,0-2,2v8a2,2,0,0,0,2,2h20a2,2,0,0,0,2-2v-8a2,2,0,0,0-2-2Z"/><g id="power_key" data-name="power key"><rect x="293.04" y="162.14" width="11.5" height="11.5" rx="1.75"/><path class="cls-2" d="M302.79,162.39a1.51,1.51,0,0,1,1.5,1.51v8a1.5,1.5,0,0,1-1.5,1.5h-8a1.5,1.5,0,0,1-1.5-1.5v-8a1.51,1.51,0,0,1,1.5-1.51h8m0-.5h-8a2,2,0,0,0-2,2v8a2,2,0,0,0,2,2h8a2,2,0,0,0,2-2v-8a2,2,0,0,0-2-2Z"/><circle cx="298.79" cy="167.89" r="3.75"/><path class="cls-2" d="M298.79,164.39a3.5,3.5,0,1,1-3.5,3.5,3.5,3.5,0,0,1,3.5-3.5m0-.5a4,4,0,1,0,4,4,4,4,0,0,0-4-4Z"/></g><rect x="112.79" y="162.89" width="10" height="10" rx="1"/><path d="M121.79,163.89h0v8h-8v-8h8m0-2h-8a2,2,0,0,0-2,2v8a2,2,0,0,0,2,2h8a2,2,0,0,0,2-2v-8a2,2,0,0,0-2-2Z"/><rect x="127.79" y="162.89" width="10" height="10" rx="1"/><path d="M136.79,163.89h0v8h-8v-8h8m0-2h-8a2,2,0,0,0-2,2v8a2,2,0,0,0,2,2h8a2,2,0,0,0,2-2v-8a2,2,0,0,0-2-2Z"/><rect x="142.79" y="162.89" width="10" height="10" rx="1"/><path d="M151.79,163.89h0v8h-8v-8h8m0-2h-8a2,2,0,0,0-2,2v8a2,2,0,0,0,2,2h8a2,2,0,0,0,2-2v-8a2,2,0,0,0-2-2Z"/><rect x="157.79" y="162.89" width="10" height="10" rx="1"/><path d="M166.79,163.89h0v8h-8v-8h8m0-2h-8a2,2,0,0,0-2,2v8a2,2,0,0,0,2,2h8a2,2,0,0,0,2-2v-8a2,2,0,0,0-2-2Z"/><rect x="172.79" y="162.89" width="10" height="10" rx="1"/><path d="M181.79,163.89h0v8h-8v-8h8m0-2h-8a2,2,0,0,0-2,2v8a2,2,0,0,0,2,2h8a2,2,0,0,0,2-2v-8a2,2,0,0,0-2-2Z"/><rect x="187.79" y="162.89" width="10" height="10" rx="1"/><path d="M196.79,163.89h0v8h-8v-8h8m0-2h-8a2,2,0,0,0-2,2v8a2,2,0,0,0,2,2h8a2,2,0,0,0,2-2v-8a2,2,0,0,0-2-2Z"/><rect x="202.79" y="162.89" width="10" height="10" rx="1"/><path d="M211.79,163.89h0v8h-8v-8h8m0-2h-8a2,2,0,0,0-2,2v8a2,2,0,0,0,2,2h8a2,2,0,0,0,2-2v-8a2,2,0,0,0-2-2Z"/><rect x="217.79" y="162.89" width="10" height="10" rx="1"/><path d="M226.79,163.89h0v8h-8v-8h8m0-2h-8a2,2,0,0,0-2,2v8a2,2,0,0,0,2,2h8a2,2,0,0,0,2-2v-8a2,2,0,0,0-2-2Z"/><rect x="232.79" y="162.89" width="10" height="10" rx="1"/><path d="M241.79,163.89h0v8h-8v-8h8m0-2h-8a2,2,0,0,0-2,2v8a2,2,0,0,0,2,2h8a2,2,0,0,0,2-2v-8a2,2,0,0,0-2-2Z"/><rect x="247.79" y="162.89" width="10" height="10" rx="1"/><path d="M256.79,163.89h0v8h-8v-8h8m0-2h-8a2,2,0,0,0-2,2v8a2,2,0,0,0,2,2h8a2,2,0,0,0,2-2v-8a2,2,0,0,0-2-2Z"/><rect x="262.79" y="162.89" width="10" height="10" rx="1"/><path d="M271.79,163.89h0v8h-8v-8h8m0-2h-8a2,2,0,0,0-2,2v8a2,2,0,0,0,2,2h8a2,2,0,0,0,2-2v-8a2,2,0,0,0-2-2Z"/><rect x="277.79" y="162.89" width="10" height="10" rx="1"/><path d="M286.79,163.89h0v8h-8v-8h8m0-2h-8a2,2,0,0,0-2,2v8a2,2,0,0,0,2,2h8a2,2,0,0,0,2-2v-8a2,2,0,0,0-2-2Z"/></g><g id="row_2" data-name="row 2"><rect x="99.79" y="178.89" width="10" height="10" rx="1"/><path d="M108.79,179.89h0v8h-8v-8h8m0-2h-8a2,2,0,0,0-2,2v8a2,2,0,0,0,2,2h8a2,2,0,0,0,2-2v-8a2,2,0,0,0-2-2Z"/><rect x="114.79" y="178.89" width="10" height="10" rx="1"/><path d="M123.79,179.89h0v8h-8v-8h8m0-2h-8a2,2,0,0,0-2,2v8a2,2,0,0,0,2,2h8a2,2,0,0,0,2-2v-8a2,2,0,0,0-2-2Z"/><rect x="129.79" y="178.89" width="10" height="10" rx="1"/><path d="M138.79,179.89h0v8h-8v-8h8m0-2h-8a2,2,0,0,0-2,2v8a2,2,0,0,0,2,2h8a2,2,0,0,0,2-2v-8a2,2,0,0,0-2-2Z"/><rect x="144.79" y="178.89" width="10" height="10" rx="1"/><path d="M153.79,179.89h0v8h-8v-8h8m0-2h-8a2,2,0,0,0-2,2v8a2,2,0,0,0,2,2h8a2,2,0,0,0,2-2v-8a2,2,0,0,0-2-2Z"/><rect x="159.79" y="178.89" width="10" height="10" rx="1"/><path d="M168.79,179.89h0v8h-8v-8h8m0-2h-8a2,2,0,0,0-2,2v8a2,2,0,0,0,2,2h8a2,2,0,0,0,2-2v-8a2,2,0,0,0-2-2Z"/><rect x="174.79" y="178.89" width="10" height="10" rx="1"/><path d="M183.79,179.89h0v8h-8v-8h8m0-2h-8a2,2,0,0,0-2,2v8a2,2,0,0,0,2,2h8a2,2,0,0,0,2-2v-8a2,2,0,0,0-2-2Z"/><rect x="189.79" y="178.89" width="10" height="10" rx="1"/><path d="M198.79,179.89h0v8h-8v-8h8m0-2h-8a2,2,0,0,0-2,2v8a2,2,0,0,0,2,2h8a2,2,0,0,0,2-2v-8a2,2,0,0,0-2-2Z"/><rect x="204.79" y="178.89" width="10" height="10" rx="1"/><path d="M213.79,179.89h0v8h-8v-8h8m0-2h-8a2,2,0,0,0-2,2v8a2,2,0,0,0,2,2h8a2,2,0,0,0,2-2v-8a2,2,0,0,0-2-2Z"/><rect x="219.79" y="178.89" width="10" height="10" rx="1"/><path d="M228.79,179.89h0v8h-8v-8h8m0-2h-8a2,2,0,0,0-2,2v8a2,2,0,0,0,2,2h8a2,2,0,0,0,2-2v-8a2,2,0,0,0-2-2Z"/><rect x="234.79" y="178.89" width="10" height="10" rx="1"/><path d="M243.79,179.89h0v8h-8v-8h8m0-2h-8a2,2,0,0,0-2,2v8a2,2,0,0,0,2,2h8a2,2,0,0,0,2-2v-8a2,2,0,0,0-2-2Z"/><rect x="249.79" y="178.89" width="10" height="10" rx="1"/><path d="M258.79,179.89h0v8h-8v-8h8m0-2h-8a2,2,0,0,0-2,2v8a2,2,0,0,0,2,2h8a2,2,0,0,0,2-2v-8a2,2,0,0,0-2-2Z"/><rect x="264.79" y="178.89" width="10" height="10" rx="1"/><path d="M273.79,179.89h0v8h-8v-8h8m0-2h-8a2,2,0,0,0-2,2v8a2,2,0,0,0,2,2h8a2,2,0,0,0,2-2v-8a2,2,0,0,0-2-2Z"/><rect x="84.79" y="178.89" width="10" height="10" rx="1"/><path d="M93.79,179.89h0v8h-8v-8h8m0-2h-8a2,2,0,0,0-2,2v8a2,2,0,0,0,2,2h8a2,2,0,0,0,2-2v-8a2,2,0,0,0-2-2Z"/><rect x="281.79" y="178.89" width="22" height="10" rx="1"/><path d="M302.79,179.89h0v8h-20v-8h20m0-2h-20a2,2,0,0,0-2,2v8a2,2,0,0,0,2,2h20a2,2,0,0,0,2-2v-8a2,2,0,0,0-2-2Z"/></g><g id="row_3" data-name="row 3"><rect x="84.79" y="193.89" width="22" height="10" rx="1"/><path d="M105.79,194.89h0v8h-20v-8h20m0-2h-20a2,2,0,0,0-2,2v8a2,2,0,0,0,2,2h20a2,2,0,0,0,2-2v-8a2,2,0,0,0-2-2Z"/><rect x="293.79" y="193.89" width="10" height="10" rx="1"/><path d="M302.79,194.89h0v8h-8v-8h8m0-2h-8a2,2,0,0,0-2,2v8a2,2,0,0,0,2,2h8a2,2,0,0,0,2-2v-8a2,2,0,0,0-2-2Z"/><rect x="112.79" y="193.89" width="10" height="10" rx="1"/><path d="M121.79,194.89h0v8h-8v-8h8m0-2h-8a2,2,0,0,0-2,2v8a2,2,0,0,0,2,2h8a2,2,0,0,0,2-2v-8a2,2,0,0,0-2-2Z"/><rect x="127.79" y="193.89" width="10" height="10" rx="1"/><path d="M136.79,194.89h0v8h-8v-8h8m0-2h-8a2,2,0,0,0-2,2v8a2,2,0,0,0,2,2h8a2,2,0,0,0,2-2v-8a2,2,0,0,0-2-2Z"/><rect x="142.79" y="193.89" width="10" height="10" rx="1"/><path d="M151.79,194.89h0v8h-8v-8h8m0-2h-8a2,2,0,0,0-2,2v8a2,2,0,0,0,2,2h8a2,2,0,0,0,2-2v-8a2,2,0,0,0-2-2Z"/><rect x="157.79" y="193.89" width="10" height="10" rx="1"/><path d="M166.79,194.89h0v8h-8v-8h8m0-2h-8a2,2,0,0,0-2,2v8a2,2,0,0,0,2,2h8a2,2,0,0,0,2-2v-8a2,2,0,0,0-2-2Z"/><rect x="172.79" y="193.89" width="10" height="10" rx="1"/><path d="M181.79,194.89h0v8h-8v-8h8m0-2h-8a2,2,0,0,0-2,2v8a2,2,0,0,0,2,2h8a2,2,0,0,0,2-2v-8a2,2,0,0,0-2-2Z"/><rect x="187.79" y="193.89" width="10" height="10" rx="1"/><path d="M196.79,194.89h0v8h-8v-8h8m0-2h-8a2,2,0,0,0-2,2v8a2,2,0,0,0,2,2h8a2,2,0,0,0,2-2v-8a2,2,0,0,0-2-2Z"/><rect x="202.79" y="193.89" width="10" height="10" rx="1"/><path d="M211.79,194.89h0v8h-8v-8h8m0-2h-8a2,2,0,0,0-2,2v8a2,2,0,0,0,2,2h8a2,2,0,0,0,2-2v-8a2,2,0,0,0-2-2Z"/><rect x="217.79" y="193.89" width="10" height="10" rx="1"/><path d="M226.79,194.89h0v8h-8v-8h8m0-2h-8a2,2,0,0,0-2,2v8a2,2,0,0,0,2,2h8a2,2,0,0,0,2-2v-8a2,2,0,0,0-2-2Z"/><rect x="232.79" y="193.89" width="10" height="10" rx="1"/><path d="M241.79,194.89h0v8h-8v-8h8m0-2h-8a2,2,0,0,0-2,2v8a2,2,0,0,0,2,2h8a2,2,0,0,0,2-2v-8a2,2,0,0,0-2-2Z"/><rect x="247.79" y="193.89" width="10" height="10" rx="1"/><path d="M256.79,194.89h0v8h-8v-8h8m0-2h-8a2,2,0,0,0-2,2v8a2,2,0,0,0,2,2h8a2,2,0,0,0,2-2v-8a2,2,0,0,0-2-2Z"/><rect x="262.79" y="193.89" width="10" height="10" rx="1"/><path d="M271.79,194.89h0v8h-8v-8h8m0-2h-8a2,2,0,0,0-2,2v8a2,2,0,0,0,2,2h8a2,2,0,0,0,2-2v-8a2,2,0,0,0-2-2Z"/><rect x="277.79" y="193.89" width="10" height="10" rx="1"/><path d="M286.79,194.89h0v8h-8v-8h8m0-2h-8a2,2,0,0,0-2,2v8a2,2,0,0,0,2,2h8a2,2,0,0,0,2-2v-8a2,2,0,0,0-2-2Z"/></g><g id="row_4" data-name="row 4"><rect x="114.79" y="208.89" width="10" height="10" rx="1"/><path d="M123.79,209.89h0v8h-8v-8h8m0-2h-8a2,2,0,0,0-2,2v8a2,2,0,0,0,2,2h8a2,2,0,0,0,2-2v-8a2,2,0,0,0-2-2Z"/><rect x="129.79" y="208.89" width="10" height="10" rx="1"/><path d="M138.79,209.89h0v8h-8v-8h8m0-2h-8a2,2,0,0,0-2,2v8a2,2,0,0,0,2,2h8a2,2,0,0,0,2-2v-8a2,2,0,0,0-2-2Z"/><rect x="144.79" y="208.89" width="10" height="10" rx="1"/><path d="M153.79,209.89h0v8h-8v-8h8m0-2h-8a2,2,0,0,0-2,2v8a2,2,0,0,0,2,2h8a2,2,0,0,0,2-2v-8a2,2,0,0,0-2-2Z"/><rect x="159.79" y="208.89" width="10" height="10" rx="1"/><path d="M168.79,209.89h0v8h-8v-8h8m0-2h-8a2,2,0,0,0-2,2v8a2,2,0,0,0,2,2h8a2,2,0,0,0,2-2v-8a2,2,0,0,0-2-2Z"/><rect x="174.79" y="208.89" width="10" height="10" rx="1"/><path d="M183.79,209.89h0v8h-8v-8h8m0-2h-8a2,2,0,0,0-2,2v8a2,2,0,0,0,2,2h8a2,2,0,0,0,2-2v-8a2,2,0,0,0-2-2Z"/><rect x="189.79" y="208.89" width="10" height="10" rx="1"/><path d="M198.79,209.89h0v8h-8v-8h8m0-2h-8a2,2,0,0,0-2,2v8a2,2,0,0,0,2,2h8a2,2,0,0,0,2-2v-8a2,2,0,0,0-2-2Z"/><rect x="204.79" y="208.89" width="10" height="10" rx="1"/><path d="M213.79,209.89h0v8h-8v-8h8m0-2h-8a2,2,0,0,0-2,2v8a2,2,0,0,0,2,2h8a2,2,0,0,0,2-2v-8a2,2,0,0,0-2-2Z"/><rect x="219.79" y="208.89" width="10" height="10" rx="1"/><path d="M228.79,209.89h0v8h-8v-8h8m0-2h-8a2,2,0,0,0-2,2v8a2,2,0,0,0,2,2h8a2,2,0,0,0,2-2v-8a2,2,0,0,0-2-2Z"/><rect x="234.79" y="208.89" width="10" height="10" rx="1"/><path d="M243.79,209.89h0v8h-8v-8h8m0-2h-8a2,2,0,0,0-2,2v8a2,2,0,0,0,2,2h8a2,2,0,0,0,2-2v-8a2,2,0,0,0-2-2Z"/><rect x="249.79" y="208.89" width="10" height="10" rx="1"/><path d="M258.79,209.89h0v8h-8v-8h8m0-2h-8a2,2,0,0,0-2,2v8a2,2,0,0,0,2,2h8a2,2,0,0,0,2-2v-8a2,2,0,0,0-2-2Z"/><rect x="264.79" y="208.89" width="10" height="10" rx="1"/><path d="M273.79,209.89h0v8h-8v-8h8m0-2h-8a2,2,0,0,0-2,2v8a2,2,0,0,0,2,2h8a2,2,0,0,0,2-2v-8a2,2,0,0,0-2-2Z"/><rect x="84.79" y="208.89" width="25" height="10" rx="1"/><path d="M108.79,209.89h0v8h-23v-8h23m0-2h-23a2,2,0,0,0-2,2v8a2,2,0,0,0,2,2h23a2,2,0,0,0,2-2v-8a2,2,0,0,0-2-2Z"/><rect x="278.79" y="208.89" width="25" height="10" rx="1"/><path d="M302.79,209.89h0v8h-23v-8h23m0-2h-23a2,2,0,0,0-2,2v8a2,2,0,0,0,2,2h23a2,2,0,0,0,2-2v-8a2,2,0,0,0-2-2Z"/></g><g id="row_5" data-name="row 5"><rect x="272.79" y="223.89" width="31" height="10" rx="1"/><path d="M302.79,224.89h0v8h-29v-8h29m0-2h-29a2,2,0,0,0-2,2v8a2,2,0,0,0,2,2h29a2,2,0,0,0,2-2v-8a2,2,0,0,0-2-2Z"/><rect x="122.79" y="223.89" width="10" height="10" rx="1"/><path d="M131.79,224.89h0v8h-8v-8h8m0-2h-8a2,2,0,0,0-2,2v8a2,2,0,0,0,2,2h8a2,2,0,0,0,2-2v-8a2,2,0,0,0-2-2Z"/><rect x="137.79" y="223.89" width="10" height="10" rx="1"/><path d="M146.79,224.89h0v8h-8v-8h8m0-2h-8a2,2,0,0,0-2,2v8a2,2,0,0,0,2,2h8a2,2,0,0,0,2-2v-8a2,2,0,0,0-2-2Z"/><rect x="152.79" y="223.89" width="10" height="10" rx="1"/><path d="M161.79,224.89h0v8h-8v-8h8m0-2h-8a2,2,0,0,0-2,2v8a2,2,0,0,0,2,2h8a2,2,0,0,0,2-2v-8a2,2,0,0,0-2-2Z"/><rect x="167.79" y="223.89" width="10" height="10" rx="1"/><path d="M176.79,224.89h0v8h-8v-8h8m0-2h-8a2,2,0,0,0-2,2v8a2,2,0,0,0,2,2h8a2,2,0,0,0,2-2v-8a2,2,0,0,0-2-2Z"/><rect x="182.79" y="223.89" width="10" height="10" rx="1"/><path d="M191.79,224.89h0v8h-8v-8h8m0-2h-8a2,2,0,0,0-2,2v8a2,2,0,0,0,2,2h8a2,2,0,0,0,2-2v-8a2,2,0,0,0-2-2Z"/><rect x="197.79" y="223.89" width="10" height="10" rx="1"/><path d="M206.79,224.89h0v8h-8v-8h8m0-2h-8a2,2,0,0,0-2,2v8a2,2,0,0,0,2,2h8a2,2,0,0,0,2-2v-8a2,2,0,0,0-2-2Z"/><rect x="212.79" y="223.89" width="10" height="10" rx="1"/><path d="M221.79,224.89h0v8h-8v-8h8m0-2h-8a2,2,0,0,0-2,2v8a2,2,0,0,0,2,2h8a2,2,0,0,0,2-2v-8a2,2,0,0,0-2-2Z"/><rect x="227.79" y="223.89" width="10" height="10" rx="1"/><path d="M236.79,224.89h0v8h-8v-8h8m0-2h-8a2,2,0,0,0-2,2v8a2,2,0,0,0,2,2h8a2,2,0,0,0,2-2v-8a2,2,0,0,0-2-2Z"/><rect x="242.79" y="223.89" width="10" height="10" rx="1"/><path d="M251.79,224.89h0v8h-8v-8h8m0-2h-8a2,2,0,0,0-2,2v8a2,2,0,0,0,2,2h8a2,2,0,0,0,2-2v-8a2,2,0,0,0-2-2Z"/><rect x="257.79" y="223.89" width="10" height="10" rx="1"/><path d="M266.79,224.89h0v8h-8v-8h8m0-2h-8a2,2,0,0,0-2,2v8a2,2,0,0,0,2,2h8a2,2,0,0,0,2-2v-8a2,2,0,0,0-2-2Z"/><rect x="84.79" y="223.89" width="32" height="10" rx="1"/><path d="M115.79,224.89h0v8h-30v-8h30m0-2h-30a2,2,0,0,0-2,2v8a2,2,0,0,0,2,2h30a2,2,0,0,0,2-2v-8a2,2,0,0,0-2-2Z"/></g><g id="row_6" data-name="row 6"><rect x="84.79" y="238.89" width="10" height="10" rx="1"/><path d="M93.79,239.89h0v8h-8v-8h8m0-2h-8a2,2,0,0,0-2,2v8a2,2,0,0,0,2,2h8a2,2,0,0,0,2-2v-8a2,2,0,0,0-2-2Z"/><rect x="99.79" y="238.89" width="10" height="10" rx="1"/><path d="M108.79,239.89h0v8h-8v-8h8m0-2h-8a2,2,0,0,0-2,2v8a2,2,0,0,0,2,2h8a2,2,0,0,0,2-2v-8a2,2,0,0,0-2-2Z"/><rect x="114.79" y="238.89" width="10" height="10" rx="1"/><path d="M123.79,239.89h0v8h-8v-8h8m0-2h-8a2,2,0,0,0-2,2v8a2,2,0,0,0,2,2h8a2,2,0,0,0,2-2v-8a2,2,0,0,0-2-2Z"/><rect x="129.79" y="238.89" width="10" height="10" rx="1"/><path d="M138.79,239.89h0v8h-8v-8h8m0-2h-8a2,2,0,0,0-2,2v8a2,2,0,0,0,2,2h8a2,2,0,0,0,2-2v-8a2,2,0,0,0-2-2Z"/><rect x="145.79" y="238.89" width="85" height="10" rx="1"/><path d="M229.79,239.89h0v8h-83v-8h83m0-2h-83a2,2,0,0,0-2,2v8a2,2,0,0,0,2,2h83a2,2,0,0,0,2-2v-8a2,2,0,0,0-2-2Z"/><rect x="235.79" y="238.89" width="10" height="10" rx="1"/><path d="M244.79,239.89h0v8h-8v-8h8m0-2h-8a2,2,0,0,0-2,2v8a2,2,0,0,0,2,2h8a2,2,0,0,0,2-2v-8a2,2,0,0,0-2-2Z"/><rect x="250.79" y="238.89" width="10" height="10" rx="1"/><path d="M259.79,239.89h0v8h-8v-8h8m0-2h-8a2,2,0,0,0-2,2v8a2,2,0,0,0,2,2h8a2,2,0,0,0,2-2v-8a2,2,0,0,0-2-2Z"/><g id="arrow_keys" data-name="arrow keys"><rect x="280.79" y="238.89" width="10" height="3"/><path d="M289.79,239.89v1h-8v-1h8m2-2h-12v5h12v-5Z"/><rect x="280.79" y="245.89" width="10" height="3"/><path d="M289.79,246.89v1h-8v-1h8m2-2h-12v5h12v-5Z"/><rect x="266.79" y="245.89" width="10" height="3"/><path d="M275.79,246.89v1h-8v-1h8m2-2h-12v5h12v-5Z"/><rect x="293.79" y="245.89" width="10" height="3"/><path d="M302.79,246.89v1h-8v-1h8m2-2h-12v5h12v-5Z"/></g></g></g></g></svg>
