<svg xmlns="http://www.w3.org/2000/svg" viewBox="0 0 400 400"><defs><style>.cls-1{fill:#fff;}</style></defs><g id="keyboard"><g id="keyboard-2" data-name="keyboard"><g id="body"><path d="M303.86,158.89a4.93,4.93,0,0,1,4.93,4.93V249a4.93,4.93,0,0,1-4.93,4.92H83.72A4.93,4.93,0,0,1,78.79,249V163.82a4.93,4.93,0,0,1,4.93-4.93H303.86m0-5H83.72a9.93,9.93,0,0,0-9.93,9.93V249a9.92,9.92,0,0,0,9.93,9.92H303.86a9.92,9.92,0,0,0,9.93-9.92V163.82a9.93,9.93,0,0,0-9.93-9.93Z"/></g><g id="row_1" data-name="row 1"><path d="M105.79,161.89h-20a2,2,0,0,0-2,2v8a2,2,0,0,0,2,2h20a2,2,0,0,0,2-2v-8a2,2,0,0,0-2-2Z"/><g id="power_key" data-name="power key"><path d="M302.79,161.89h-8a2,2,0,0,0-2,2v8a2,2,0,0,0,2,2h8a2,2,0,0,0,2-2v-8a2,2,0,0,0-2-2Z"/><path class="cls-1" d="M298.79,163.89a4,4,0,1,0,4,4,4,4,0,0,0-4-4Z"/></g><path d="M121.79,161.89h-8a2,2,0,0,0-2,2v8a2,2,0,0,0,2,2h8a2,2,0,0,0,2-2v-8a2,2,0,0,0-2-2Z"/><path d="M136.79,161.89h-8a2,2,0,0,0-2,2v8a2,2,0,0,0,2,2h8a2,2,0,0,0,2-2v-8a2,2,0,0,0-2-2Z"/><path d="M151.79,161.89h-8a2,2,0,0,0-2,2v8a2,2,0,0,0,2,2h8a2,2,0,0,0,2-2v-8a2,2,0,0,0-2-2Z"/><path d="M166.79,161.89h-8a2,2,0,0,0-2,2v8a2,2,0,0,0,2,2h8a2,2,0,0,0,2-2v-8a2,2,0,0,0-2-2Z"/><path d="M181.79,161.89h-8a2,2,0,0,0-2,2v8a2,2,0,0,0,2,2h8a2,2,0,0,0,2-2v-8a2,2,0,0,0-2-2Z"/><path d="M196.79,161.89h-8a2,2,0,0,0-2,2v8a2,2,0,0,0,2,2h8a2,2,0,0,0,2-2v-8a2,2,0,0,0-2-2Z"/><path d="M211.79,161.89h-8a2,2,0,0,0-2,2v8a2,2,0,0,0,2,2h8a2,2,0,0,0,2-2v-8a2,2,0,0,0-2-2Z"/><path d="M226.79,161.89h-8a2,2,0,0,0-2,2v8a2,2,0,0,0,2,2h8a2,2,0,0,0,2-2v-8a2,2,0,0,0-2-2Z"/><path d="M241.79,161.89h-8a2,2,0,0,0-2,2v8a2,2,0,0,0,2,2h8a2,2,0,0,0,2-2v-8a2,2,0,0,0-2-2Z"/><path d="M256.79,161.89h-8a2,2,0,0,0-2,2v8a2,2,0,0,0,2,2h8a2,2,0,0,0,2-2v-8a2,2,0,0,0-2-2Z"/><path d="M271.79,161.89h-8a2,2,0,0,0-2,2v8a2,2,0,0,0,2,2h8a2,2,0,0,0,2-2v-8a2,2,0,0,0-2-2Z"/><path d="M286.79,161.89h-8a2,2,0,0,0-2,2v8a2,2,0,0,0,2,2h8a2,2,0,0,0,2-2v-8a2,2,0,0,0-2-2Z"/></g><g id="row_2" data-name="row 2"><path d="M108.79,177.89h-8a2,2,0,0,0-2,2v8a2,2,0,0,0,2,2h8a2,2,0,0,0,2-2v-8a2,2,0,0,0-2-2Z"/><path d="M123.79,177.89h-8a2,2,0,0,0-2,2v8a2,2,0,0,0,2,2h8a2,2,0,0,0,2-2v-8a2,2,0,0,0-2-2Z"/><path d="M138.79,177.89h-8a2,2,0,0,0-2,2v8a2,2,0,0,0,2,2h8a2,2,0,0,0,2-2v-8a2,2,0,0,0-2-2Z"/><path d="M153.79,177.89h-8a2,2,0,0,0-2,2v8a2,2,0,0,0,2,2h8a2,2,0,0,0,2-2v-8a2,2,0,0,0-2-2Z"/><path d="M168.79,177.89h-8a2,2,0,0,0-2,2v8a2,2,0,0,0,2,2h8a2,2,0,0,0,2-2v-8a2,2,0,0,0-2-2Z"/><path d="M183.79,177.89h-8a2,2,0,0,0-2,2v8a2,2,0,0,0,2,2h8a2,2,0,0,0,2-2v-8a2,2,0,0,0-2-2Z"/><path d="M198.79,177.89h-8a2,2,0,0,0-2,2v8a2,2,0,0,0,2,2h8a2,2,0,0,0,2-2v-8a2,2,0,0,0-2-2Z"/><path d="M213.79,177.89h-8a2,2,0,0,0-2,2v8a2,2,0,0,0,2,2h8a2,2,0,0,0,2-2v-8a2,2,0,0,0-2-2Z"/><path d="M228.79,177.89h-8a2,2,0,0,0-2,2v8a2,2,0,0,0,2,2h8a2,2,0,0,0,2-2v-8a2,2,0,0,0-2-2Z"/><path d="M243.79,177.89h-8a2,2,0,0,0-2,2v8a2,2,0,0,0,2,2h8a2,2,0,0,0,2-2v-8a2,2,0,0,0-2-2Z"/><path d="M258.79,177.89h-8a2,2,0,0,0-2,2v8a2,2,0,0,0,2,2h8a2,2,0,0,0,2-2v-8a2,2,0,0,0-2-2Z"/><path d="M273.79,177.89h-8a2,2,0,0,0-2,2v8a2,2,0,0,0,2,2h8a2,2,0,0,0,2-2v-8a2,2,0,0,0-2-2Z"/><path d="M93.79,177.89h-8a2,2,0,0,0-2,2v8a2,2,0,0,0,2,2h8a2,2,0,0,0,2-2v-8a2,2,0,0,0-2-2Z"/><path d="M302.79,177.89h-20a2,2,0,0,0-2,2v8a2,2,0,0,0,2,2h20a2,2,0,0,0,2-2v-8a2,2,0,0,0-2-2Z"/></g><g id="row_3" data-name="row 3"><path d="M105.79,192.89h-20a2,2,0,0,0-2,2v8a2,2,0,0,0,2,2h20a2,2,0,0,0,2-2v-8a2,2,0,0,0-2-2Z"/><path d="M302.79,192.89h-8a2,2,0,0,0-2,2v8a2,2,0,0,0,2,2h8a2,2,0,0,0,2-2v-8a2,2,0,0,0-2-2Z"/><path d="M121.79,192.89h-8a2,2,0,0,0-2,2v8a2,2,0,0,0,2,2h8a2,2,0,0,0,2-2v-8a2,2,0,0,0-2-2Z"/><path d="M136.79,192.89h-8a2,2,0,0,0-2,2v8a2,2,0,0,0,2,2h8a2,2,0,0,0,2-2v-8a2,2,0,0,0-2-2Z"/><path d="M151.79,192.89h-8a2,2,0,0,0-2,2v8a2,2,0,0,0,2,2h8a2,2,0,0,0,2-2v-8a2,2,0,0,0-2-2Z"/><path d="M166.79,192.89h-8a2,2,0,0,0-2,2v8a2,2,0,0,0,2,2h8a2,2,0,0,0,2-2v-8a2,2,0,0,0-2-2Z"/><path d="M181.79,192.89h-8a2,2,0,0,0-2,2v8a2,2,0,0,0,2,2h8a2,2,0,0,0,2-2v-8a2,2,0,0,0-2-2Z"/><path d="M196.79,192.89h-8a2,2,0,0,0-2,2v8a2,2,0,0,0,2,2h8a2,2,0,0,0,2-2v-8a2,2,0,0,0-2-2Z"/><path d="M211.79,192.89h-8a2,2,0,0,0-2,2v8a2,2,0,0,0,2,2h8a2,2,0,0,0,2-2v-8a2,2,0,0,0-2-2Z"/><path d="M226.79,192.89h-8a2,2,0,0,0-2,2v8a2,2,0,0,0,2,2h8a2,2,0,0,0,2-2v-8a2,2,0,0,0-2-2Z"/><path d="M241.79,192.89h-8a2,2,0,0,0-2,2v8a2,2,0,0,0,2,2h8a2,2,0,0,0,2-2v-8a2,2,0,0,0-2-2Z"/><path d="M256.79,192.89h-8a2,2,0,0,0-2,2v8a2,2,0,0,0,2,2h8a2,2,0,0,0,2-2v-8a2,2,0,0,0-2-2Z"/><path d="M271.79,192.89h-8a2,2,0,0,0-2,2v8a2,2,0,0,0,2,2h8a2,2,0,0,0,2-2v-8a2,2,0,0,0-2-2Z"/><path d="M286.79,192.89h-8a2,2,0,0,0-2,2v8a2,2,0,0,0,2,2h8a2,2,0,0,0,2-2v-8a2,2,0,0,0-2-2Z"/></g><g id="row_4" data-name="row 4"><path d="M123.79,207.89h-8a2,2,0,0,0-2,2v8a2,2,0,0,0,2,2h8a2,2,0,0,0,2-2v-8a2,2,0,0,0-2-2Z"/><path d="M138.79,207.89h-8a2,2,0,0,0-2,2v8a2,2,0,0,0,2,2h8a2,2,0,0,0,2-2v-8a2,2,0,0,0-2-2Z"/><path d="M153.79,207.89h-8a2,2,0,0,0-2,2v8a2,2,0,0,0,2,2h8a2,2,0,0,0,2-2v-8a2,2,0,0,0-2-2Z"/><path d="M168.79,207.89h-8a2,2,0,0,0-2,2v8a2,2,0,0,0,2,2h8a2,2,0,0,0,2-2v-8a2,2,0,0,0-2-2Z"/><path d="M183.79,207.89h-8a2,2,0,0,0-2,2v8a2,2,0,0,0,2,2h8a2,2,0,0,0,2-2v-8a2,2,0,0,0-2-2Z"/><path d="M198.79,207.89h-8a2,2,0,0,0-2,2v8a2,2,0,0,0,2,2h8a2,2,0,0,0,2-2v-8a2,2,0,0,0-2-2Z"/><path d="M213.79,207.89h-8a2,2,0,0,0-2,2v8a2,2,0,0,0,2,2h8a2,2,0,0,0,2-2v-8a2,2,0,0,0-2-2Z"/><path d="M228.79,207.89h-8a2,2,0,0,0-2,2v8a2,2,0,0,0,2,2h8a2,2,0,0,0,2-2v-8a2,2,0,0,0-2-2Z"/><path d="M243.79,207.89h-8a2,2,0,0,0-2,2v8a2,2,0,0,0,2,2h8a2,2,0,0,0,2-2v-8a2,2,0,0,0-2-2Z"/><path d="M258.79,207.89h-8a2,2,0,0,0-2,2v8a2,2,0,0,0,2,2h8a2,2,0,0,0,2-2v-8a2,2,0,0,0-2-2Z"/><path d="M273.79,207.89h-8a2,2,0,0,0-2,2v8a2,2,0,0,0,2,2h8a2,2,0,0,0,2-2v-8a2,2,0,0,0-2-2Z"/><path d="M108.79,207.89h-23a2,2,0,0,0-2,2v8a2,2,0,0,0,2,2h23a2,2,0,0,0,2-2v-8a2,2,0,0,0-2-2Z"/><path d="M302.79,207.89h-23a2,2,0,0,0-2,2v8a2,2,0,0,0,2,2h23a2,2,0,0,0,2-2v-8a2,2,0,0,0-2-2Z"/></g><g id="row_5" data-name="row 5"><path d="M302.79,222.89h-29a2,2,0,0,0-2,2v8a2,2,0,0,0,2,2h29a2,2,0,0,0,2-2v-8a2,2,0,0,0-2-2Z"/><path d="M131.79,222.89h-8a2,2,0,0,0-2,2v8a2,2,0,0,0,2,2h8a2,2,0,0,0,2-2v-8a2,2,0,0,0-2-2Z"/><path d="M146.79,222.89h-8a2,2,0,0,0-2,2v8a2,2,0,0,0,2,2h8a2,2,0,0,0,2-2v-8a2,2,0,0,0-2-2Z"/><path d="M161.79,222.89h-8a2,2,0,0,0-2,2v8a2,2,0,0,0,2,2h8a2,2,0,0,0,2-2v-8a2,2,0,0,0-2-2Z"/><path d="M176.79,222.89h-8a2,2,0,0,0-2,2v8a2,2,0,0,0,2,2h8a2,2,0,0,0,2-2v-8a2,2,0,0,0-2-2Z"/><path d="M191.79,222.89h-8a2,2,0,0,0-2,2v8a2,2,0,0,0,2,2h8a2,2,0,0,0,2-2v-8a2,2,0,0,0-2-2Z"/><path d="M206.79,222.89h-8a2,2,0,0,0-2,2v8a2,2,0,0,0,2,2h8a2,2,0,0,0,2-2v-8a2,2,0,0,0-2-2Z"/><path d="M221.79,222.89h-8a2,2,0,0,0-2,2v8a2,2,0,0,0,2,2h8a2,2,0,0,0,2-2v-8a2,2,0,0,0-2-2Z"/><path d="M236.79,222.89h-8a2,2,0,0,0-2,2v8a2,2,0,0,0,2,2h8a2,2,0,0,0,2-2v-8a2,2,0,0,0-2-2Z"/><path d="M251.79,222.89h-8a2,2,0,0,0-2,2v8a2,2,0,0,0,2,2h8a2,2,0,0,0,2-2v-8a2,2,0,0,0-2-2Z"/><path d="M266.79,222.89h-8a2,2,0,0,0-2,2v8a2,2,0,0,0,2,2h8a2,2,0,0,0,2-2v-8a2,2,0,0,0-2-2Z"/><path d="M115.79,222.89h-30a2,2,0,0,0-2,2v8a2,2,0,0,0,2,2h30a2,2,0,0,0,2-2v-8a2,2,0,0,0-2-2Z"/></g><g id="row_6" data-name="row 6"><path d="M93.79,237.89h-8a2,2,0,0,0-2,2v8a2,2,0,0,0,2,2h8a2,2,0,0,0,2-2v-8a2,2,0,0,0-2-2Z"/><path d="M108.79,237.89h-8a2,2,0,0,0-2,2v8a2,2,0,0,0,2,2h8a2,2,0,0,0,2-2v-8a2,2,0,0,0-2-2Z"/><path d="M123.79,237.89h-8a2,2,0,0,0-2,2v8a2,2,0,0,0,2,2h8a2,2,0,0,0,2-2v-8a2,2,0,0,0-2-2Z"/><path d="M138.79,237.89h-8a2,2,0,0,0-2,2v8a2,2,0,0,0,2,2h8a2,2,0,0,0,2-2v-8a2,2,0,0,0-2-2Z"/><path d="M229.79,237.89h-83a2,2,0,0,0-2,2v8a2,2,0,0,0,2,2h83a2,2,0,0,0,2-2v-8a2,2,0,0,0-2-2Z"/><path d="M244.79,237.89h-8a2,2,0,0,0-2,2v8a2,2,0,0,0,2,2h8a2,2,0,0,0,2-2v-8a2,2,0,0,0-2-2Z"/><path d="M259.79,237.89h-8a2,2,0,0,0-2,2v8a2,2,0,0,0,2,2h8a2,2,0,0,0,2-2v-8a2,2,0,0,0-2-2Z"/><g id="arrow_keys" data-name="arrow keys"><polygon points="291.79 237.9 279.79 237.9 279.79 242.9 291.79 242.9 291.79 237.9 291.79 237.9"/><polygon points="291.79 244.9 279.79 244.9 279.79 249.9 291.79 249.9 291.79 244.9 291.79 244.9"/><polygon points="277.79 244.9 265.79 244.9 265.79 249.9 277.79 249.9 277.79 244.9 277.79 244.9"/><polygon points="304.79 244.9 292.79 244.9 292.79 249.9 304.79 249.9 304.79 244.9 304.79 244.9"/></g></g></g></g><g id="border"><g id="border-2" data-name="border"><path d="M327.3,20A52.76,52.76,0,0,1,380,72.7V327.3A52.76,52.76,0,0,1,327.3,380H72.7A52.76,52.76,0,0,1,20,327.3V72.7A52.76,52.76,0,0,1,72.7,20H327.3m0-20H72.7A72.7,72.7,0,0,0,0,72.7V327.3A72.7,72.7,0,0,0,72.7,400H327.3A72.7,72.7,0,0,0,400,327.3V72.7A72.7,72.7,0,0,0,327.3,0Z"/></g></g></svg>