<svg xmlns="http://www.w3.org/2000/svg" viewBox="0 0 400 400"><defs><style>.cls-1{fill:#ccc;}.cls-2,.cls-3{fill:#fff;}.cls-3{stroke:#000;stroke-miterlimit:10;stroke-width:20px;fill-rule:evenodd;}</style></defs><g id="border"><g id="border-2" data-name="border"><rect class="cls-1" x="10" y="10" width="380" height="380" rx="62.7"/><path d="M327.3,20A52.76,52.76,0,0,1,380,72.7V327.3A52.76,52.76,0,0,1,327.3,380H72.7A52.76,52.76,0,0,1,20,327.3V72.7A52.76,52.76,0,0,1,72.7,20H327.3m0-20H72.7A72.7,72.7,0,0,0,0,72.7V327.3A72.7,72.7,0,0,0,72.7,400H327.3A72.7,72.7,0,0,0,400,327.3V72.7A72.7,72.7,0,0,0,327.3,0Z"/></g></g><g id="mail"><g id="mail_icon" data-name="mail icon"><rect class="cls-2" x="92.79" y="132.89" width="214" height="135" rx="16.22"/><path d="M290.57,142.89a6.24,6.24,0,0,1,6.22,6.23V251.67a6.23,6.23,0,0,1-6.22,6.22H109a6.23,6.23,0,0,1-6.22-6.22V149.12a6.24,6.24,0,0,1,6.22-6.23H290.57m0-20H109a26.23,26.23,0,0,0-26.22,26.23V251.67A26.22,26.22,0,0,0,109,277.89H290.57a26.22,26.22,0,0,0,26.22-26.22V149.12a26.23,26.23,0,0,0-26.22-26.23Z"/><path class="cls-3" d="M208.87,216.36l91.06-58.24C311,151,306,133.89,292.84,133.89H110.74c-13.14,0-18.15,17.15-7.09,24.23l91,58.24A13.12,13.12,0,0,0,208.87,216.36Z"/></g></g></svg>