<svg id="mic" xmlns="http://www.w3.org/2000/svg" viewBox="0 0 400 400">
  <defs>
    <style>.cls-1{fill:#ccc;}.cls-2,.cls-4{fill:red;}.cls-2,.cls-3,.cls-4{stroke:#000;stroke-miterlimit:10;stroke-width:20px;}.cls-3{fill:#ed1c24;}.cls-4{fill-rule:evenodd;}</style>
    <script>
      let themic = document.querySelector("#mic")

      function LogMyId (){
      console.log(this.id);
      }

      themic.addEventListener("click", LogMyId)

    </script>
  </defs><g id="mic"><g id="border-2" data-name="border"><rect class="cls-1" x="10" y="10" width="380" height="380" rx="62.7"/><path d="M327.3,20A52.76,52.76,0,0,1,380,72.7V327.3A52.76,52.76,0,0,1,327.3,380H72.7A52.76,52.76,0,0,1,20,327.3V72.7A52.76,52.76,0,0,1,72.7,20H327.3m0-20H72.7A72.7,72.7,0,0,0,0,72.7V327.3A72.7,72.7,0,0,0,72.7,400H327.3A72.7,72.7,0,0,0,400,327.3V72.7A72.7,72.7,0,0,0,327.3,0Z"/></g><rect id="mic_mute" data-name="mic mute" class="cls-2" x="161" y="98" width="78" height="160" rx="31"/><g id="mic_stand" data-name="mic stand"><ellipse class="cls-3" cx="199.5" cy="299.5" rx="62.5" ry="0.5"/><rect class="cls-3" x="192" y="258" width="15" height="39"/></g><path id="mic_line" data-name="mic line" class="cls-4" d="M244,210h0Z"/></g></svg>
