<svg id="mouse" xmlns="http://www.w3.org/2000/svg" viewBox="0 0 400 400">
  <defs>
    <style>
      #mouse:hover {cursor:pointer;}
      #mouse:hover #border-2
      {
      fill: red;
      transition: all 1.5s ease;
      }
      #mouse:hover .cls-2
      {
      fill: blue;
      transition: all 1.5s ease;
      }
      .cls-1{
      fill:#ccc;

      }
      .cls-2,.cls-5{
      fill:#fff;
      transform-origin: center ;

      }
      .cls-3,.cls-4{
      fill:none;stroke:#000;

      }
      .cls-3,.cls-4,.cls-5{
      stroke-miterlimit:10;
      }
      .cls-3{
      stroke-width:20px;

      }
      .cls-4{
      stroke-width:13px;

      }
      .cls-5{
      stroke:#fff;stroke-width:3px;

      }
    </style>
    <script>
      let themouse = document.querySelector("#mouse")

      function LogMyId (){
      console.log(this.id);
      }

      themouse.addEventListener("click", LogMyId)

    </script>
  </defs><g id="border"><g id="border-2" data-name="border"><rect class="cls-1" x="10" y="10" width="380" height="380" rx="62.7"/><path d="M327.3,20A52.76,52.76,0,0,1,380,72.7V327.3A52.76,52.76,0,0,1,327.3,380H72.7A52.76,52.76,0,0,1,20,327.3V72.7A52.76,52.76,0,0,1,72.7,20H327.3m0-20H72.7A72.7,72.7,0,0,0,0,72.7V327.3A72.7,72.7,0,0,0,72.7,400H327.3A72.7,72.7,0,0,0,400,327.3V72.7A72.7,72.7,0,0,0,327.3,0Z"/></g></g><g id="mouse"><g id="mouse_body" data-name="mouse body"><rect class="cls-2" x="144.79" y="92.89" width="123" height="214" rx="40.35"/><path d="M227.44,102.89a30.39,30.39,0,0,1,30.35,30.36V266.54a30.38,30.38,0,0,1-30.35,30.35h-42.3a30.38,30.38,0,0,1-30.35-30.35V133.25a30.39,30.39,0,0,1,30.35-30.36h42.3m0-20h-42.3a50.36,50.36,0,0,0-50.35,50.36V266.54a50.35,50.35,0,0,0,50.35,50.35h42.3a50.35,50.35,0,0,0,50.35-50.35V133.25a50.36,50.36,0,0,0-50.35-50.36Z"/></g><line id="button_line" data-name="button line" class="cls-3" x1="152.79" y1="179.89" x2="263.79" y2="179.89"/><path id="mouse_cable" data-name="mouse cable" class="cls-4" d="M206.2,90.89s-6.47-21.7,5.48-38.58-6-36.33-6-36.33L184.79,8.89"/><g id="scroll"><line class="cls-3" x1="205.14" y1="97.89" x2="205.14" y2="179.89"/><rect id="scroll_wheel" data-name="scroll wheel" class="cls-5" x="203.39" y="108.39" width="3.5" height="46" rx="1.75"/></g></g></svg>
