<svg xmlns="http://www.w3.org/2000/svg" viewBox="0 0 400 400"><g id="phone"><g id="body"><path d="M234.91,115.89a13.9,13.9,0,0,1,13.88,13.89V270a13.89,13.89,0,0,1-13.88,13.88H165.67A13.89,13.89,0,0,1,151.79,270V129.78a13.9,13.9,0,0,1,13.88-13.89h69.24m0-10H165.67a23.89,23.89,0,0,0-23.88,23.89V270a23.88,23.88,0,0,0,23.88,23.88h69.24A23.88,23.88,0,0,0,258.79,270V129.78a23.89,23.89,0,0,0-23.88-23.89Z"/></g><g id="speaker"><path d="M211.29,119.89h-23a3.5,3.5,0,0,0,0,7h23a3.5,3.5,0,0,0,0-7Z"/></g><g id="home_button" data-name="home button"><path d="M199.79,264.89a8,8,0,1,1-8,8,8,8,0,0,1,8-8m0-2a10,10,0,1,0,10,10,10,10,0,0,0-10-10Z"/></g><g id="display"><path d="M245.79,131.89v129h-91v-129h91m2-2h-95v133h95v-133Z"/></g></g><g id="border"><g id="border-2" data-name="border"><path d="M327.3,20A52.76,52.76,0,0,1,380,72.7V327.3A52.76,52.76,0,0,1,327.3,380H72.7A52.76,52.76,0,0,1,20,327.3V72.7A52.76,52.76,0,0,1,72.7,20H327.3m0-20H72.7A72.7,72.7,0,0,0,0,72.7V327.3A72.7,72.7,0,0,0,72.7,400H327.3A72.7,72.7,0,0,0,400,327.3V72.7A72.7,72.7,0,0,0,327.3,0Z"/></g></g></svg>